<?xml version="1.0" encoding="UTF-8" standalone="no"?>
<!-- Created with Inkscape (http://www.inkscape.org/) -->

<svg
   width="210mm"
   height="297mm"
   viewBox="0 0 210 297"
   version="1.1"
   id="svg5"
   inkscape:version="1.1 (c4e8f9ed74, 2021-05-24)"
   sodipodi:docname="icon.svg"
   inkscape:export-filename="/home/kskitek/wrk/recipes/web/plugin/images/icon16.png"
   inkscape:export-xdpi="2.76"
   inkscape:export-ydpi="2.76"
   xmlns:inkscape="http://www.inkscape.org/namespaces/inkscape"
   xmlns:sodipodi="http://sodipodi.sourceforge.net/DTD/sodipodi-0.dtd"
   xmlns="http://www.w3.org/2000/svg"
   xmlns:svg="http://www.w3.org/2000/svg">
  <sodipodi:namedview
     id="namedview7"
     pagecolor="#505050"
     bordercolor="#ffffff"
     borderopacity="1"
     inkscape:pageshadow="0"
     inkscape:pageopacity="0"
     inkscape:pagecheckerboard="1"
     inkscape:document-units="mm"
     showgrid="false"
     inkscape:zoom="1.0998546"
     inkscape:cx="758.73665"
     inkscape:cy="854.65842"
     inkscape:window-width="1961"
     inkscape:window-height="2144"
     inkscape:window-x="8"
     inkscape:window-y="8"
     inkscape:window-maximized="1"
     inkscape:current-layer="layer1" />
  <defs
     id="defs2">
    <inkscape:path-effect
       effect="powerstroke"
       id="path-effect11746"
       is_visible="true"
       lpeversion="1"
       offset_points="0.2,1.7390714 | 1.530205,4.6966752 | 2.8,1.7390714"
       not_jump="false"
       sort_points="true"
       interpolator_type="CentripetalCatmullRom"
       interpolator_beta="0.2"
       start_linecap_type="zerowidth"
       linejoin_type="round"
       miter_limit="4"
       scale_width="1"
       end_linecap_type="zerowidth" />
    <inkscape:path-effect
       effect="powerstroke"
       id="path-effect11742"
       is_visible="true"
       lpeversion="1"
       offset_points="0.017914164,1.6704246 | 0.49682199,3.2359009 | 0.9859641,0.70781241"
       not_jump="false"
       sort_points="true"
       interpolator_type="CentripetalCatmullRom"
       interpolator_beta="0.2"
       start_linecap_type="zerowidth"
       linejoin_type="round"
       miter_limit="4"
       scale_width="1"
       end_linecap_type="zerowidth" />
    <inkscape:path-effect
       effect="powerstroke"
       id="path-effect11738"
       is_visible="true"
       lpeversion="1"
       offset_points="0.56269404,2.3254152 | 1.1221044,5.0402492 | 2.5474816,3.3146904"
       not_jump="false"
       sort_points="true"
       interpolator_type="CentripetalCatmullRom"
       interpolator_beta="0.2"
       start_linecap_type="zerowidth"
       linejoin_type="round"
       miter_limit="4"
       scale_width="1"
       end_linecap_type="zerowidth" />
    <inkscape:path-effect
       effect="powerstroke"
       id="path-effect11734"
       is_visible="true"
       lpeversion="1"
       offset_points="0,0.30676805 | 1.3322227,5.5117943 | 2.6882627,4.9248049"
       not_jump="false"
       sort_points="true"
       interpolator_type="CentripetalCatmullRom"
       interpolator_beta="0.2"
       start_linecap_type="zerowidth"
       linejoin_type="round"
       miter_limit="4"
       scale_width="1"
       end_linecap_type="zerowidth" />
    <inkscape:path-effect
       effect="powerstroke"
       id="path-effect11730"
       is_visible="true"
       lpeversion="1"
       offset_points="0.40395069,4.7204073 | 0.99075469,3.8734121 | 1.5867682,3.7437021"
       not_jump="false"
       sort_points="true"
       interpolator_type="CentripetalCatmullRom"
       interpolator_beta="0.2"
       start_linecap_type="zerowidth"
       linejoin_type="round"
       miter_limit="4"
       scale_width="1"
       end_linecap_type="zerowidth" />
    <linearGradient
       id="linearGradient7962"
       inkscape:swatch="solid">
      <stop
         style="stop-color:#ffffff;stop-opacity:1;"
         offset="0"
         id="stop7960" />
    </linearGradient>
    <inkscape:path-effect
       effect="powerstroke"
       id="path-effect1541"
       is_visible="true"
       lpeversion="1"
       offset_points="0.23936906,4.7585477 | 1.6962706,5.5891142 | 2.8,1.7200641"
       not_jump="false"
       sort_points="true"
       interpolator_type="CentripetalCatmullRom"
       interpolator_beta="0.2"
       start_linecap_type="zerowidth"
       linejoin_type="round"
       miter_limit="4"
       scale_width="1"
       end_linecap_type="zerowidth" />
    <inkscape:path-effect
       effect="powerstroke"
       id="path-effect1537"
       is_visible="true"
       lpeversion="1"
       offset_points="0.035828329,1.6521676 | 0.73937721,6.3622117 | 1.2728286,2.9157617"
       not_jump="false"
       sort_points="true"
       interpolator_type="CentripetalCatmullRom"
       interpolator_beta="0.2"
       start_linecap_type="zerowidth"
       linejoin_type="round"
       miter_limit="4"
       scale_width="1"
       end_linecap_type="zerowidth" />
    <inkscape:path-effect
       effect="powerstroke"
       id="path-effect1533"
       is_visible="true"
       lpeversion="1"
       offset_points="0.76425579,4.8982392 | 1.0519021,6.8229787 | 2.5839538,3.674798"
       not_jump="false"
       sort_points="true"
       interpolator_type="CentripetalCatmullRom"
       interpolator_beta="0.2"
       start_linecap_type="zerowidth"
       linejoin_type="round"
       miter_limit="4"
       scale_width="1"
       end_linecap_type="zerowidth" />
    <inkscape:path-effect
       effect="powerstroke"
       id="path-effect1529"
       is_visible="true"
       lpeversion="1"
       offset_points="0,0.30341522 | 1.2975935,6.8469442 | 2.6538948,5.2265911"
       not_jump="false"
       sort_points="true"
       interpolator_type="CentripetalCatmullRom"
       interpolator_beta="0.2"
       start_linecap_type="zerowidth"
       linejoin_type="round"
       miter_limit="4"
       scale_width="1"
       end_linecap_type="zerowidth" />
    <inkscape:path-effect
       effect="powerstroke"
       id="path-effect1525"
       is_visible="true"
       lpeversion="1"
       offset_points="0.24854886,2.8194853 | 1.0009598,8.7428191 | 1.6925693,3.2737164"
       not_jump="false"
       sort_points="true"
       interpolator_type="CentripetalCatmullRom"
       interpolator_beta="0.2"
       start_linecap_type="zerowidth"
       linejoin_type="round"
       miter_limit="4"
       scale_width="1"
       end_linecap_type="zerowidth" />
    <inkscape:path-effect
       effect="powerstroke"
       id="path-effect6479"
       is_visible="true"
       lpeversion="1"
       offset_points="0.035828329,0.19210535 | 0.98015852,0.15158414 | 1.9719282,0.081401191"
       not_jump="false"
       sort_points="true"
       interpolator_type="CentripetalCatmullRom"
       interpolator_beta="0.2"
       start_linecap_type="zerowidth"
       linejoin_type="round"
       miter_limit="4"
       scale_width="1"
       end_linecap_type="zerowidth" />
    <inkscape:path-effect
       effect="powerstroke"
       id="path-effect6401"
       is_visible="true"
       lpeversion="1"
       offset_points="0.2,0.2 | 1.5,0.2 | 2.8,0.2"
       not_jump="false"
       sort_points="true"
       interpolator_type="CentripetalCatmullRom"
       interpolator_beta="0.2"
       start_linecap_type="zerowidth"
       linejoin_type="round"
       miter_limit="4"
       scale_width="1"
       end_linecap_type="zerowidth" />
    <inkscape:path-effect
       effect="powerstroke"
       id="path-effect6361"
       is_visible="true"
       lpeversion="1"
       offset_points="0.2437361,0.14759454 | 1,0.2 | 1.7027485,0.20512188"
       not_jump="false"
       sort_points="true"
       interpolator_type="CentripetalCatmullRom"
       interpolator_beta="0.2"
       start_linecap_type="zerowidth"
       linejoin_type="round"
       miter_limit="4"
       scale_width="1"
       end_linecap_type="zerowidth" />
    <inkscape:path-effect
       effect="powerstroke"
       id="path-effect6245"
       is_visible="true"
       lpeversion="1"
       offset_points="0.6807841,0.12764283 | 1.1250776,0.25581271 | 2.8954636,0.080699723"
       not_jump="false"
       sort_points="true"
       interpolator_type="CentripetalCatmullRom"
       interpolator_beta="0.2"
       start_linecap_type="zerowidth"
       linejoin_type="round"
       miter_limit="4"
       scale_width="1"
       end_linecap_type="zerowidth" />
    <inkscape:path-effect
       effect="powerstroke"
       id="path-effect6129"
       is_visible="true"
       lpeversion="1"
       offset_points="0,0.035279524 | 1.2031836,0.25860227 | 2.7779209,0.15086831"
       not_jump="false"
       sort_points="true"
       interpolator_type="CentripetalCatmullRom"
       interpolator_beta="0.2"
       start_linecap_type="zerowidth"
       linejoin_type="round"
       miter_limit="4"
       scale_width="1"
       end_linecap_type="zerowidth" />
  </defs>
  <g
     inkscape:label="Layer 1"
     inkscape:groupmode="layer"
     id="layer1">
    <path
       style="opacity:1;fill:#ffffff;fill-opacity:1;stroke:none;stroke-width:1.37456;stroke-opacity:1"
       d="m 1096.054,1109.594 c -15.0482,-12.9281 -39.7762,-25.2808 -61.3799,-30.6618 -15.563,-3.8765 -21.8978,-4.5883 -40.90638,-4.5965 -32.26416,-0.014 -54.25052,5.1501 -74.98469,17.6117 l -7.27417,4.3719 -2.68959,-8.3964 c -7.71207,-24.0755 -17.21718,-73.1001 -29.47144,-152.00534 -0.27741,-1.78625 0.22571,-1.97979 6.59857,-2.53839 24.14012,-2.11596 37.8245,-5.47667 55.99629,-13.752 l 6.36448,-2.89835 -9.09211,-4.28342 c -18.11672,-8.53501 -30.18645,-11.37538 -63.95251,-15.04991 -19.96073,-2.17219 -25.47317,-3.47614 -35.50649,-8.39896 -14.70605,-7.2155 -24.79479,-20.66216 -29.17394,-38.88416 -2.94478,-12.25345 -4.08183,-28.9092 -2.90276,-42.52023 4.02255,-46.43596 26.10984,-75.17265 66.85339,-86.97967 9.52235,-2.75947 19.45106,-4.6825 20.21772,-3.91583 0.30298,0.30297 -0.27697,2.94297 -1.28877,5.86665 -5.33325,15.41086 -7.43549,28.716 -7.43549,47.05934 0,21.67048 4.96005,43.80543 13.4283,59.92573 3.94846,7.51636 9.94985,14.19953 12.75098,14.19953 3.97038,0 5.12237,-5.42438 7.02494,-33.07842 3.84707,-55.91742 7.93807,-75.51549 20.19044,-96.7229 14.25008,-24.66518 39.68802,-41.69381 73.55163,-49.23679 21.0461,-4.68795 54.3593,-6.48121 70.7373,-3.80782 39.1785,6.39518 62.4796,25.75544 74.5248,61.92086 5.9263,17.79323 8.5868,35.14601 11.4764,74.85218 2.2421,30.80922 3.5488,35.14144 8.8857,29.46053 6.1818,-6.58017 13.2339,-29.61514 16.1219,-52.66017 l 0.5344,-4.26394 7.4535,3.19018 c 23.1519,9.90928 38.9314,20.36994 47.0202,31.17088 6.6868,8.92895 8.6425,14.89077 8.5262,25.99185 -0.1544,14.74543 -3.9839,27.91232 -11.2151,38.56081 -6.1632,9.07574 -13.9768,14.28151 -26.1269,17.40706 -10.3477,2.6619 -22.3237,2.4301 -45.301,-0.87682 -56.0548,-8.06747 -99.0611,-9.4289 -129.9897,-4.115 -17.8599,3.06853 -37.6829,11.56517 -49.17744,21.07865 l -6.31188,5.22404 5.45526,0.73099 c 3.0004,0.40204 15.27476,2.33193 27.27636,4.28864 12.0016,1.95671 35.9365,5.40407 53.1888,7.66079 36.0899,4.72079 46.7261,6.17197 47.067,6.42167 0.1334,0.0977 -0.5721,3.61444 -1.5678,7.81492 -4.0736,17.18384 -11.7462,68.05882 -15.0011,99.46752 -1.2598,12.1569 -3.3607,41.63 -4.8158,67.5622 l -0.679,12.1003 z"
       id="path13950"
       transform="scale(0.26458333)"
       inkscape:export-filename="/home/kskitek/wrk/recipes/web/plugin/images/icon24.png"
       inkscape:export-xdpi="4.1363196"
       inkscape:export-ydpi="4.1363196" />
    <path
       style="fill:#ffffff;fill-opacity:1;stroke:#ffffff;stroke-width:0.382017;stroke-opacity:1"
       d="m 131.63835,293.44104 c -3.72187,-3.01281 -10.07962,-5.23286 -18.06714,-6.30877 -3.73614,-0.50326 -16.284401,-0.41671 -20.088639,0.13857 -6.120295,0.89332 -9.908625,2.04149 -15.367394,4.65754 -2.779266,1.33193 -3.535021,1.60198 -3.706552,1.32445 -0.341338,-0.55231 -1.759716,-6.10791 -2.582135,-10.1139 -0.847012,-4.12577 -6.26587,-36.39253 -6.26587,-37.3103 v -0.59279 l 4.232512,-0.002 c 2.327883,-10e-4 5.180378,-0.11089 6.338879,-0.24409 2.535597,-0.29143 4.842536,-1.2407 4.842536,-1.99253 0,-0.43605 -0.227249,-0.51594 -1.831983,-0.64405 -9.213705,-0.73556 -9.844971,-0.82023 -12.571195,-1.68615 -5.272617,-1.6747 -11.212779,-6.51805 -13.979869,-11.39859 -3.23798,-5.71108 -4.241005,-13.69905 -2.559618,-20.3845 1.599073,-6.35815 5.352724,-10.85791 11.612082,-13.92022 2.835105,-1.38704 9.728464,-3.63175 9.728464,-3.16792 0,0.0766 -0.177946,0.56203 -0.395435,1.07874 -0.59679,1.41784 -2.080924,7.6502 -2.409191,10.11697 -0.338225,2.54163 -0.184441,6.69023 0.285043,7.68937 0.418635,0.89093 1.188472,0.90579 1.521689,0.0294 0.139168,-0.36604 0.654986,-2.44123 1.146267,-4.61154 2.450843,-10.82702 4.73442,-16.33774 9.072096,-21.89276 5.038586,-6.45264 11.96141,-10.60422 20.934133,-12.55411 2.31571,-0.50323 3.30179,-0.5592 10.02268,-0.56892 7.36807,-0.0106 7.48571,-0.002 10.17288,0.69756 11.28743,2.94097 17.49419,9.26965 20.42395,20.82514 0.93947,3.70544 1.1978,6.5865 1.47616,16.46311 0.15079,5.35046 0.32732,8.27626 0.5104,8.45934 1.18547,1.18547 3.16933,-3.92062 3.8302,-9.85821 0.16759,-1.50568 0.39443,-2.83934 0.5041,-2.96368 0.1139,-0.12915 1.19429,0.12134 2.51989,0.58424 9.80408,3.42356 14.66707,7.63948 15.6895,13.60185 0.66412,3.87282 -0.73501,9.94724 -3.13221,13.59879 -1.93706,2.95063 -5.63575,5.38341 -9.41705,6.19399 -2.48932,0.53362 -7.48716,0.35968 -14.34011,-0.49909 -10.22117,-1.28085 -13.59567,-1.55527 -21.03612,-1.71068 -8.41509,-0.17576 -13.91643,0.15464 -17.43459,1.04709 -3.104432,0.78751 -6.788934,2.39046 -6.907295,3.00504 -0.08132,0.42228 0.04633,0.44141 1.640328,0.24584 0.950684,-0.11665 6.731717,-0.20193 12.846747,-0.18952 9.85091,0.02 11.6223,0.0858 15.54027,0.57748 6.34227,0.79588 15.25978,2.06749 15.38634,2.19404 0.0593,0.0594 -0.196,1.55859 -0.56745,3.33164 -0.99227,4.73635 -1.69478,10.12479 -3.82999,29.37685 -1.05584,9.51999 -1.9988,17.60061 -2.09545,17.95687 l -0.17573,0.64777 z"
       id="path1855"
       inkscape:export-filename="/home/kskitek/wrk/recipes/web/plugin/images/icon16.png"
       inkscape:export-xdpi="2.7575467"
       inkscape:export-ydpi="2.7575467" />
    <path
       style="fill:#000000;fill-rule:nonzero;stroke:none;stroke-width:3.44012;stroke-linecap:butt;stroke-linejoin:miter;stroke-miterlimit:4;stroke-dasharray:none;stroke-opacity:1"
       d="m 68.548196,218.30534 v 0 c 0.253473,2.9e-4 0.6623,-0.1946 1.25052,-1.35051 0.613507,-1.20559 1.266315,-3.09874 2.220009,-5.98737 -3.3e-5,1e-4 0.02532,-0.0766 0.02529,-0.0765 1.084785,-3.27489 3.360498,-9.52508 6.98516,-15.41098 1.590125,-2.58213 3.443515,-5.11132 5.61065,-7.40812 2.104981,-2.23091 4.437141,-4.17041 7.046027,-5.75803 2.620738,-1.59484 5.52212,-2.83621 8.786872,-3.68488 3.45362,-0.89776 7.3512,-1.36586 11.80658,-1.32628 9e-5,0 0.10547,0.001 0.10555,0.001 4.45122,0.0481 7.98317,0.6303 10.82661,1.51905 2.77142,0.86624 5.05524,2.07482 6.98857,3.57767 1.98368,1.54201 3.69186,3.46794 5.16252,5.78508 1.53184,2.41357 2.72316,5.12372 3.64354,7.93684 1.58032,4.83017 2.29861,9.77992 2.60073,13.42119 0.10358,1.24842 0.18719,2.43166 0.26289,3.55965 0.21636,3.22405 0.33314,5.3148 0.58866,6.7731 0.2407,1.37371 0.54651,1.69142 0.78913,1.75063 0.22535,0.055 0.6922,-0.0844 1.44345,-1.31119 0.74001,-1.20837 1.70837,-3.42885 2.58513,-6.64211 0.31575,-1.15718 0.61016,-2.4117 0.86656,-3.7403 0.73813,-3.8249 1.57074,-9.42507 1.26627,-15.58502 -0.17707,-3.58232 -0.74729,-7.53808 -2.06017,-11.49987 -1.2674,-3.82453 -3.25954,-7.72764 -6.27087,-11.22615 -3.01984,-3.50839 -6.93704,-6.46731 -11.80259,-8.54716 -4.91292,-2.1001 -10.51797,-3.18754 -16.69877,-3.256 -0.0486,-5.4e-4 -0.0973,-0.001 -0.1461,-0.001 -6.08146,-0.0515 -11.82122,0.8522 -17.080253,2.73158 -4.993999,1.78467 -9.300354,4.35832 -12.930136,7.4836 -3.578379,3.08103 -6.36717,6.58242 -8.523889,10.16266 -2.212709,3.67319 -3.75603,7.42067 -4.834932,10.90642 -2.490479,8.04633 -2.683455,15.22401 -2.623993,18.96601 3e-6,2.2e-4 0.0014,0.0865 0.0014,0.0867 0.05481,3.19379 0.490711,5.43503 0.950435,6.68019 0.466465,1.26343 0.923711,1.47021 1.159122,1.47048 z"
       id="path186-7"
       inkscape:path-effect="#path-effect1525"
       inkscape:original-d="m 68.548196,218.30534 c 0,0 0.05642,-50.12322 43.806664,-49.74513 43.75019,0.37807 30.89264,53.06674 30.89264,53.06674"
       inkscape:export-filename="/home/kskitek/wrk/recipes/web/plugin/images/icon16.png"
       inkscape:export-xdpi="2.7575467"
       inkscape:export-ydpi="2.7575467"
       sodipodi:nodetypes="csc" />
    <rect
       style="fill:#ffffff;stroke:#ffffff;stroke-width:1.6071;stroke-miterlimit:4;stroke-dasharray:none"
       id="rect5023"
       width="145.77029"
       height="145.77029"
       x="32.420277"
       y="3.9300115"
       ry="6.1860237"
       inkscape:export-filename="/home/kskitek/wrk/recipes/web/plugin/images/icon16.png"
       inkscape:export-xdpi="2.79"
       inkscape:export-ydpi="2.79" />
    <g
       id="g5110"
       transform="matrix(8.1876327,0,0,8.1876327,-833.2269,-721.56165)"
       inkscape:export-filename="/home/kskitek/wrk/recipes/web/plugin/images/icon16.png"
       inkscape:export-xdpi="2.79"
       inkscape:export-ydpi="2.79">
      <path
         style="fill:#000000;fill-rule:nonzero;stroke:none;stroke-width:0.4;stroke-linecap:butt;stroke-linejoin:miter;stroke-miterlimit:4;stroke-dasharray:none;stroke-opacity:1"
         d="m 110.2313,94.264931 c 0.0463,-0.0011 0.077,-0.111075 0.20239,-0.721536 -2.2e-4,0.0011 0.007,-0.03467 0.007,-0.03361 0.0694,-0.334766 0.2091,-0.986868 0.53782,-1.644683 0.14418,-0.288535 0.32785,-0.58577 0.56408,-0.867184 0.22982,-0.273781 0.50732,-0.530135 0.84369,-0.749515 0.34021,-0.221885 0.73514,-0.40236 1.19323,-0.526749 0.48344,-0.131273 1.02317,-0.196249 1.62052,-0.189548 0.60578,0.0068 1.12063,0.09641 1.55444,0.252232 0.42209,0.151609 0.76039,0.363301 1.03168,0.613487 0.27289,0.251663 0.47786,0.542161 0.63229,0.848944 0.1606,0.319015 0.26611,0.65482 0.33596,0.979992 0.12679,0.590225 0.13972,1.167557 0.14076,1.559905 2.9e-4,0.108861 -7e-5,0.211129 -6.5e-4,0.31005 -0.004,0.7297 9.8e-4,0.88138 0.0544,0.89412 0.0152,0.0036 0.1888,-0.109373 0.31412,-0.861867 0.0169,-0.101368 0.0313,-0.209614 0.042,-0.323063 0.039,-0.414063 0.0447,-1.026068 -0.0934,-1.676748 -0.0757,-0.356463 -0.19628,-0.731859 -0.38418,-1.092154 -0.18123,-0.347488 -0.42406,-0.678959 -0.7468,-0.965161 -0.32126,-0.284888 -0.71368,-0.517833 -1.18839,-0.680416 -0.48641,-0.166587 -1.0474,-0.255329 -1.68865,-0.259307 -0.6286,-0.0039 -1.20476,0.06599 -1.7277,0.209122 -0.49609,0.135782 -0.92869,0.333244 -1.30399,0.578995 -0.37094,0.242893 -0.67632,0.526689 -0.92723,0.828983 -0.25759,0.310339 -0.45456,0.636298 -0.60523,0.949755 -0.34719,0.722276 -0.46173,1.403329 -0.49478,1.76724 -0.001,0.01215 -0.002,0.0241 -0.003,0.03583 -0.0531,0.65229 0.081,0.763095 0.0899,0.762886 z"
         id="path186"
         inkscape:path-effect="#path-effect6361"
         inkscape:original-d="m 110.2313,94.264931 c 0,0 -0.11666,-4.976786 4.97039,-4.932823 5.08704,0.04396 3.74711,5.658723 3.74711,5.658723" />
      <path
         style="fill:#000000;fill-rule:nonzero;stroke:none;stroke-width:0.4;stroke-linecap:butt;stroke-linejoin:miter;stroke-miterlimit:4;stroke-dasharray:none;stroke-opacity:1"
         d="m 119.15743,93.264298 c -7e-4,0.0062 -0.003,0.02342 -0.004,0.03506 -0.008,0.0652 -0.033,0.063 0.39803,0.195411 0.2052,0.06303 0.54955,0.1726 0.88978,0.345425 0.31029,0.15762 0.61712,0.367169 0.83615,0.645021 0.10706,0.135799 0.19094,0.285104 0.246,0.450086 0.0565,0.169404 0.083,0.355953 0.0727,0.563458 -0.0196,0.408276 -0.0974,0.716498 -0.19275,0.949394 -0.0236,0.05756 -0.0493,0.113245 -0.0771,0.166998 -0.13682,0.263919 -0.32281,0.474956 -0.55661,0.633606 -0.21538,0.146151 -0.46677,0.244557 -0.74228,0.298387 -0.26979,0.05271 -0.55091,0.06028 -0.82048,0.03486 -0.0273,-0.0019 -0.0711,-0.0067 -0.12784,-0.0138 -0.0572,-0.0071 -0.1269,-0.01637 -0.2066,-0.02712 -0.16777,-0.02264 -0.36522,-0.04984 -0.59918,-0.07983 -0.52132,-0.06683 -1.1003,-0.131257 -1.69388,-0.171104 -0.77841,-0.05225 -1.40754,-0.05012 -1.90433,-0.0079 -0.0716,0.0061 -0.13885,0.01286 -0.20198,0.02019 -0.25763,0.0299 -0.47438,0.07416 -0.65558,0.124738 -0.36352,0.101461 -0.56936,0.224477 -0.67994,0.289287 0.12495,-0.03463 0.35257,-0.07133 0.71326,-0.09277 0.18082,-0.01075 0.39099,-0.01761 0.64149,-0.02013 0.0613,-6.16e-4 0.12647,-8.63e-4 0.1959,-5.62e-4 0.48734,0.0021 1.08695,0.03119 1.85422,0.113161 0.58185,0.06216 1.14756,0.142739 1.66189,0.224793 0.22903,0.03654 0.42647,0.06991 0.59228,0.09807 0.0787,0.01336 0.15046,0.02558 0.20885,0.03527 0.057,0.0095 0.10802,0.01765 0.14504,0.02268 0.31194,0.03825 0.64676,0.03651 0.97644,-0.02437 0.33774,-0.06237 0.6614,-0.185262 0.94567,-0.380747 0.31132,-0.214082 0.55248,-0.499353 0.72036,-0.842326 0.0339,-0.06919 0.0644,-0.140044 0.0918,-0.212309 0.11158,-0.294135 0.19096,-0.661166 0.20225,-1.120931 0.007,-0.266449 -0.0345,-0.51309 -0.11839,-0.739039 -0.0815,-0.219627 -0.20046,-0.411853 -0.34355,-0.579034 -0.28844,-0.336998 -0.6682,-0.564466 -1.01566,-0.716009 -0.38998,-0.170086 -0.76072,-0.254303 -0.9879,-0.290886 -0.46976,-0.07565 -0.45606,0.0024 -0.46015,0.03795 -0.001,0.01125 -0.003,0.02921 -0.004,0.03506 z"
         id="path188"
         sodipodi:nodetypes="cssc"
         inkscape:path-effect="#path-effect6129"
         inkscape:original-d="m 119.15743,93.264298 c 0,0 2.75309,0.310631 2.68415,2.243214 -0.0712,1.996961 -1.49576,2.459797 -2.66291,2.331964 -0.52272,-0.05725 -4.44432,-0.798617 -6.04113,-0.123033" />
      <path
         style="fill:#000000;fill-rule:nonzero;stroke:none;stroke-width:0.4;stroke-linecap:butt;stroke-linejoin:miter;stroke-miterlimit:4;stroke-dasharray:none;stroke-opacity:1"
         d="m 110.75506,91.8975 c -2.1e-4,-0.0091 -0.10529,-0.03466 -0.47877,0.0095 -0.28352,0.0335 -0.6754,0.110832 -1.08047,0.276009 -0.2152,0.08776 -0.41724,0.193398 -0.60296,0.317238 -0.0932,0.06218 -0.17925,0.126848 -0.25863,0.193248 -0.11135,0.09313 -0.21146,0.190191 -0.30115,0.289988 -0.182,0.20252 -0.33466,0.431345 -0.45095,0.688014 -0.11123,0.245502 -0.20523,0.551609 -0.24278,0.932215 -0.0303,0.305286 -0.031,0.630212 0.0186,0.962023 0.0381,0.254883 0.10732,0.524586 0.22198,0.79575 0.18134,0.428905 0.45082,0.800805 0.78832,1.107731 0.28451,0.258743 0.58047,0.437484 0.82284,0.552445 0.22508,0.106765 0.38347,0.148494 0.39594,0.144 a 0.00568035,0.01279055 80.432708 0 0 0.0177,0.0045 c 0.009,-0.01453 0.3467,0.0317 0.69698,0.04089 0.2315,0.0061 0.44264,-0.0017 0.6286,-0.02439 0.16587,-0.02024 0.28807,-0.04964 0.36643,-0.07672 0.13244,-0.04575 0.195,-0.11194 0.2253,-0.133734 -0.0416,-0.0015 -0.11749,-0.0226 -0.25123,-0.02557 -0.0808,-0.0018 -0.18995,-5.54e-4 -0.3495,-0.0092 -0.17526,-0.0095 -0.3724,-0.02913 -0.58945,-0.06367 -0.32766,-0.05213 -0.64191,-0.135729 -0.63249,-0.150259 a 0.00568038,0.01279057 80.432609 0 0 0.0177,0.0045 c 0.0122,-0.0044 -0.11734,-0.05032 -0.30494,-0.150682 -0.20487,-0.109602 -0.45285,-0.268991 -0.69174,-0.493536 -0.28138,-0.264491 -0.50364,-0.575497 -0.65782,-0.932452 -0.0979,-0.226544 -0.16045,-0.453278 -0.19961,-0.672061 -0.0509,-0.284361 -0.0653,-0.570417 -0.0555,-0.847453 0.0116,-0.3322 0.0656,-0.604449 0.13542,-0.824101 0.0735,-0.231173 0.17806,-0.446328 0.31908,-0.643337 0.0695,-0.09705 0.15011,-0.192926 0.24389,-0.285942 0.0668,-0.06626 0.14055,-0.131851 0.22189,-0.196011 0.16218,-0.127925 0.34359,-0.241513 0.54179,-0.340597 0.37418,-0.187062 0.74672,-0.291736 1.02141,-0.352815 0.36026,-0.08011 0.4644,-0.08653 0.46419,-0.0956 z"
         id="path190"
         inkscape:path-effect="#path-effect6245"
         inkscape:original-d="m 110.75506,91.8975 c 0,0 -2.99922,0.07109 -3.18169,2.72229 -0.18248,2.651205 2.0786,3.329067 2.0786,3.329067 0,0 1.1493,0.245748 1.86999,0.02736" />
      <path
         style="fill:#000000;fill-rule:nonzero;stroke:none;stroke-width:0.4;stroke-linecap:butt;stroke-linejoin:miter;stroke-miterlimit:4;stroke-dasharray:none;stroke-opacity:1"
         d="m 118.7468,97.726036 c -0.0374,0.03539 -0.15168,0.07036 -0.22445,0.212337 -0.32988,0.643581 -0.57654,4.186687 -0.86351,6.319667 -0.002,0.0186 -0.005,0.0372 -0.008,0.056 -0.22969,0.10933 -0.99596,0.44071 -2.03813,0.67903 -0.68731,0.15718 -1.36921,0.24176 -2.02572,0.23807 -0.98927,-0.006 -1.5888,-0.20494 -1.91699,-0.27573 -0.1482,-0.032 -0.22253,-0.0185 -0.26752,-0.0239 0.0299,0.0267 0.0768,0.1 0.20874,0.17575 0.27571,0.15825 0.96539,0.41016 1.97116,0.43398 0.68429,0.0162 1.39716,-0.0727 2.10217,-0.23805 1.29811,-0.30444 2.16369,-0.75901 2.17225,-0.75631 a 0.05699927,0.11898578 10.196467 0 0 0.0817,-0.11337 c 0.007,-0.0448 0.0134,-0.089 0.02,-0.13252 0.32282,-2.12784 1.07986,-5.597912 0.94373,-6.308185 -0.03,-0.156686 -0.1299,-0.222307 -0.15588,-0.266769 z"
         id="path192"
         sodipodi:nodetypes="ccc"
         inkscape:path-effect="#path-effect6479"
         inkscape:original-d="m 118.7468,97.726036 -0.95689,6.686144 c 0,0 -3.57991,1.78947 -6.38699,0.51933" />
      <path
         style="fill:#000000;fill-rule:nonzero;stroke:none;stroke-width:0.4;stroke-linecap:butt;stroke-linejoin:miter;stroke-miterlimit:4;stroke-dasharray:none;stroke-opacity:1"
         d="m 109.65197,97.948857 c 0.006,0.599988 -0.0274,1.760665 0.0584,2.916153 0.0133,0.17945 0.0297,0.36657 0.049,0.55633 0.074,0.72863 0.18033,1.40483 0.30534,1.93012 0.0984,0.41362 0.19629,0.68433 0.28237,0.85375 0.0393,0.0774 0.0751,0.13161 0.10641,0.16963 0.0306,0.0371 0.0574,0.0595 0.0797,0.0728 a 0.13392736,0.02493293 29.665959 0 0 0.14157,0.0491 c 0,-0.014 0.34295,-0.29768 0.87934,-0.51657 l 0.0756,-0.0148 c 0.50977,-0.20803 1.37636,-0.44606 2.60107,-0.40573 0.58623,0.0194 1.05218,0.0776 1.42943,0.15438 0.40655,0.0827 0.70902,0.18695 0.94057,0.28424 0.27381,0.11505 0.50476,0.24722 0.64082,0.3183 0.0413,0.0216 0.079,0.0405 0.11404,0.0568 0.23334,0.10838 0.40505,0.10794 0.49871,0.13006 -0.0322,-0.0585 -0.0955,-0.27573 -0.26259,-0.45293 -0.0282,-0.03 -0.0616,-0.062 -0.10005,-0.0956 -0.13898,-0.12124 -0.36439,-0.27895 -0.69165,-0.42164 -0.26464,-0.11537 -0.6038,-0.2248 -1.04731,-0.30424 -0.40987,-0.0734 -0.90436,-0.12054 -1.51217,-0.12674 -1.29508,-0.0136 -2.21054,0.26768 -2.762,0.49272 l 0.0756,-0.0148 c -0.53639,0.21889 -0.87934,0.47313 -0.87934,0.45913 l 0.14157,0.0491 c 0.0224,0.0133 0.029,0.0196 0.024,0.007 -0.005,-0.0125 -0.0223,-0.0442 -0.0471,-0.10212 -0.0574,-0.13379 -0.13859,-0.36422 -0.23685,-0.76143 -0.12771,-0.51624 -0.24149,-1.13602 -0.36106,-1.86845 -0.0306,-0.18762 -0.0592,-0.36723 -0.0876,-0.54507 -0.18257,-1.143212 -0.37983,-2.262667 -0.45573,-2.869843 z"
         id="path194"
         sodipodi:nodetypes="ccsc"
         inkscape:path-effect="#path-effect6401"
         inkscape:original-d="m 109.65197,97.948857 c 0.39246,5.822403 1.02282,6.319163 1.02282,6.319163 0,0 1.15794,-0.98857 3.56087,-0.93707 2.34527,0.0503 3.02114,0.71835 3.61867,1.17248" />
    </g>
    <rect
       style="fill:none;stroke:#ffffff;stroke-width:1.6071;stroke-miterlimit:4;stroke-dasharray:none"
       id="rect5023-2"
       width="145.77029"
       height="145.77029"
       x="200.6163"
       y="164.35799"
       ry="6.1860237"
       inkscape:export-filename="/home/kskitek/wrk/recipes/web/plugin/images/icon24.png"
       inkscape:export-xdpi="4.1363196"
       inkscape:export-ydpi="4.1363196" />
    <path
       style="fill:#000000;fill-rule:nonzero;stroke:none;stroke-width:3.47814;stroke-linecap:butt;stroke-linejoin:miter;stroke-miterlimit:4;stroke-dasharray:none;stroke-opacity:1"
       d="m 241.53542,223.12932 0,0 c 0.27265,-0.0887 0.64969,-0.47695 0.93755,-1.86704 0.30155,-1.45625 0.43748,-3.54192 0.62548,-6.65622 0.1528,-2.53121 0.30106,-4.93718 0.57636,-7.80235 0.0629,-0.65471 0.12922,-1.29882 0.19967,-1.94313 0.22865,-2.09122 0.53026,-4.30834 1.01066,-6.5454 0.59161,-2.75496 1.4579,-5.55847 2.80858,-8.22513 1.30121,-2.56901 3.08226,-5.07213 5.58606,-7.30621 2.48928,-2.22112 5.74301,-4.21975 10.01362,-5.71707 4.01595,-1.40803 8.86639,-2.34874 14.66662,-2.62558 0.46704,-0.0223 0.94117,-0.0404 1.4225,-0.0542 5.1076,-0.15237 9.3181,0.46723 12.76107,1.61832 3.37611,1.12874 5.99675,2.76115 8.0554,4.67036 2.08008,1.92909 3.6431,4.19331 4.83799,6.6315 1.24109,2.53245 2.08432,5.25191 2.68627,7.96503 0.43975,1.98201 0.74922,3.95395 0.99092,5.83069 0.47637,3.69902 0.70492,6.90591 0.90605,10.16676 0.18751,3.04007 0.29717,4.99558 0.53679,6.37061 0.22569,1.29504 0.51353,1.61996 0.7293,1.67458 l 0,0 c 0.19932,0.0505 0.65406,-0.0966 1.3746,-1.24796 0.70646,-1.12884 1.64199,-3.2163 2.45451,-6.25857 0.85109,-3.18669 1.47093,-7.09445 1.47289,-11.15059 0.001,-2.16032 -0.16612,-4.49614 -0.5706,-6.90368 -0.55172,-3.28401 -1.55472,-6.75676 -3.21569,-10.09047 -1.61073,-3.23288 -3.83424,-6.32175 -6.83799,-8.95959 -2.98455,-2.62096 -6.63361,-4.70428 -11.02282,-6.09316 -4.44272,-1.40581 -9.54011,-2.06885 -15.34754,-1.95449 -0.52672,0.0108 -1.04691,0.0258 -1.56068,0.045 -6.36306,0.23718 -11.95539,1.10015 -16.8511,2.55976 -5.22729,1.55847 -9.59976,3.7802 -13.21115,6.56028 -3.64539,2.80626 -6.39886,6.09362 -8.42026,9.59146 -2.08196,3.60262 -3.34735,7.35889 -4.03695,10.92033 -0.55957,2.88986 -0.74518,5.67544 -0.67438,8.20562 0.0218,0.77797 0.0699,1.55487 0.14227,2.32666 0.3022,3.22332 1.01314,6.21983 1.87937,8.7213 1.08074,3.12092 2.33957,5.28212 3.27565,6.39895 0.95364,1.13776 1.54712,1.22562 1.79898,1.14369 z"
       id="path186-0"
       inkscape:path-effect="#path-effect11730"
       inkscape:original-d="m 241.53542,223.12932 c 0,0 -16.68046,-51.27791 37.75267,-52.6077 44.22209,-1.08034 31.59822,48.79318 31.59822,48.79318"
       sodipodi:nodetypes="csc"
       inkscape:export-filename="/home/kskitek/wrk/recipes/web/plugin/images/icon24.png"
       inkscape:export-xdpi="4.1363196"
       inkscape:export-ydpi="4.1363196" />
    <path
       style="fill:#000000;fill-rule:nonzero;stroke:none;stroke-width:3.47814;stroke-linecap:butt;stroke-linejoin:miter;stroke-miterlimit:4;stroke-dasharray:none;stroke-opacity:1"
       d="m 314.45114,201.58774 c -0.006,0.0508 -0.0225,0.2013 -0.0344,0.30483 -0.0688,0.5968 -0.31829,0.8359 3.30349,2.38172 1.67482,0.71483 4.59477,1.92397 7.30736,3.57094 2.50026,1.51804 4.79949,3.37959 6.29934,5.64535 0.7149,1.07998 1.21924,2.20782 1.5107,3.40345 0.29321,1.20284 0.38523,2.53199 0.21868,4.03036 -0.3884,4.00766 -1.42981,6.63919 -2.50189,8.4166 -0.39896,0.66143 -0.81058,1.21627 -1.20964,1.68476 -0.82345,0.96672 -1.7697,1.74131 -2.8266,2.35397 -1.48828,0.8627 -3.2438,1.43 -5.2125,1.70344 -1.94566,0.27025 -3.99105,0.23758 -5.9794,-0.0166 -0.0781,-0.0141 -0.55481,-0.0872 -0.96134,-0.14983 -0.46721,-0.072 -1.0824,-0.1666 -1.76313,-0.26868 -1.4318,-0.2147 -3.2124,-0.47149 -5.24022,-0.73171 -4.58306,-0.58814 -9.78835,-1.11104 -14.98078,-1.31989 -4.89539,-0.1969 -9.24161,-0.0922 -12.89655,0.32422 -1.4447,0.16461 -2.82454,0.39709 -4.12876,0.68502 -3.04147,0.67144 -5.5669,1.61958 -7.59578,2.6546 -3.08569,1.57412 -4.67996,3.15797 -5.65369,4.04046 1.34824,-0.0867 3.40296,0.19182 6.46068,0.71835 1.92303,0.33115 4.46635,0.79723 7.1424,1.21446 1.1874,0.18514 2.44781,0.36848 3.76064,0.53671 3.97734,0.50969 6.66942,0.81167 11.896,1.52541 5.11956,0.69913 9.52437,1.37586 14.19882,2.12259 1.88795,0.30159 3.74727,0.60276 5.12002,0.81514 0.69177,0.10702 1.31453,0.20015 1.84928,0.27383 0.5187,0.0715 0.99293,0.13014 1.41152,0.16734 3.05872,0.29906 6.36794,0.18671 9.64541,-0.5317 3.35342,-0.73505 6.60673,-2.09103 9.46487,-4.20186 2.0349,-1.50285 3.77041,-3.31551 5.18106,-5.3997 0.67938,-1.00375 1.31901,-2.13157 1.88645,-3.39533 1.53423,-3.41693 2.46238,-7.64788 2.40205,-12.88387 -0.0204,-2.65103 -0.52374,-5.09122 -1.44284,-7.29528 -0.90348,-2.16656 -2.16591,-4.00361 -3.61562,-5.54511 -2.93562,-3.12149 -6.6343,-5.03009 -9.80287,-6.18928 -3.63992,-1.33163 -6.97936,-1.82902 -9.01963,-1.96201 -4.1391,-0.26979 -4.10699,0.56345 -4.15875,1.0125 -0.0119,0.10353 -0.0287,0.25402 -0.0344,0.30483 z"
       id="path188-9"
       sodipodi:nodetypes="cssc"
       inkscape:path-effect="#path-effect11734"
       inkscape:original-d="m 314.45114,201.58774 c 0,0 23.9391,2.70104 23.33964,19.50554 -0.6191,17.36429 -13.00617,21.38881 -23.15494,20.27726 -4.54524,-0.49781 -38.64496,-6.94426 -52.5298,-1.06982"
       inkscape:export-filename="/home/kskitek/wrk/recipes/web/plugin/images/icon24.png"
       inkscape:export-xdpi="4.1363196"
       inkscape:export-ydpi="4.1363196" />
    <path
       style="fill:#000000;fill-rule:nonzero;stroke:none;stroke-width:3.47814;stroke-linecap:butt;stroke-linejoin:miter;stroke-miterlimit:4;stroke-dasharray:none;stroke-opacity:1"
       d="m 243.46499,188.44425 h 0 c 0.0192,-0.1136 -0.68741,-0.85245 -4.78607,-1.34835 -3.02601,-0.36612 -7.1263,-0.41456 -11.45656,0.49276 -1.15701,0.24243 -2.28278,0.54296 -3.37414,0.90016 -1.15799,0.37902 -2.30126,0.82085 -3.42073,1.33461 -2.34207,1.07488 -4.63883,2.49178 -6.75915,4.3656 -2.1044,1.85976 -4.10982,4.2366 -5.78251,7.27649 -1.53865,2.79632 -2.84873,6.25065 -3.64299,10.51622 a 0.0017801,0.13400858 8.1224769 0 0 -0.0215,0.16657 c -0.58417,3.97465 -0.76455,7.84141 -0.40852,11.50378 0.008,0.0812 0.0161,0.16241 0.0245,0.24359 0.33433,3.21913 1.08749,6.36214 2.39125,9.28166 1.15085,2.5771 2.67728,4.85879 4.55635,6.80602 1.73298,1.79584 3.67345,3.21136 5.70794,4.30055 3.82585,2.04822 7.73415,2.81078 10.7159,3.02128 2.91309,0.20566 4.87509,-0.10847 5.09294,-0.26709 l -0.56382,0.0265 c 3.99376,-0.29629 7.73511,-0.749 10.32781,-1.29825 3.66619,-0.77666 7.13613,-2.6723 8.56336,-3.20676 -1.41327,-0.57035 -4.83422,-2.55305 -8.47961,-3.42209 -2.57799,-0.61457 -6.30671,-1.16166 -10.29172,-1.55876 a 0.69910647,0.12815255 7.700317 0 0 -0.56382,0.0265 c 0.21785,-0.15862 -1.1234,-0.11765 -3.07887,-0.39719 -2.07781,-0.29702 -4.48963,-0.89777 -6.72082,-2.13789 -1.15878,-0.64407 -2.22186,-1.43454 -3.16661,-2.40036 -1.02242,-1.04524 -1.9154,-2.30368 -2.65264,-3.83468 -0.84526,-1.75534 -1.45805,-3.81471 -1.82493,-6.19297 -0.009,-0.0596 -0.0182,-0.1194 -0.0271,-0.17931 -0.40267,-2.71917 -0.49392,-5.81463 -0.25304,-9.27607 l -0.0215,0.16656 c 0.34275,-3.43958 1.01589,-6.19643 1.81081,-8.41184 0.86671,-2.41551 1.965,-4.42915 3.21509,-6.11906 1.26633,-1.71187 2.75877,-3.18614 4.46588,-4.42483 0.81439,-0.59093 1.68087,-1.13045 2.59677,-1.61559 0.86268,-0.45696 1.7774,-0.87847 2.74441,-1.26228 3.66679,-1.45536 7.34884,-2.08013 10.28298,-2.40858 3.64137,-0.40763 4.76802,-0.47355 4.80071,-0.66684 z"
       id="path190-36"
       inkscape:path-effect="#path-effect11738"
       inkscape:original-d="m 243.46499,188.44425 c 0,0 -30.24529,-5.11464 -34.5694,24.22326 -3.60846,32.48648 22.90218,29.65413 22.90218,29.65413 l 18.83125,0.23792"
       sodipodi:nodetypes="cccc"
       inkscape:export-filename="/home/kskitek/wrk/recipes/web/plugin/images/icon24.png"
       inkscape:export-xdpi="4.1363196"
       inkscape:export-ydpi="4.1363196" />
    <path
       style="fill:#000000;fill-rule:nonzero;stroke:none;stroke-width:3.47814;stroke-linecap:butt;stroke-linejoin:miter;stroke-miterlimit:4;stroke-dasharray:none;stroke-opacity:1"
       d="m 300.77789,240.31255 c -0.30044,0.13414 -1.2253,0.0826 -1.80263,0.80485 -2.18086,2.72848 -4.34996,18.27506 -5.53444,27.62115 -1.19844,9.45636 -2.32211,25.91805 -1.56731,28.79611 0.14651,0.55864 0.48658,0.76358 0.58389,0.9163 0.13624,-0.11929 0.52014,-0.22063 0.81746,-0.71575 1.53175,-2.55082 5.07046,-18.66688 6.57249,-28.07978 1.48452,-9.30316 3.76307,-24.83407 2.43506,-28.06473 -0.35156,-0.85523 -1.25377,-1.06512 -1.50452,-1.27815 z"
       id="path192-0"
       sodipodi:nodetypes="cc"
       inkscape:path-effect="#path-effect11742"
       inkscape:original-d="m 300.77789,240.31255 -8.32049,58.13841"
       inkscape:export-filename="/home/kskitek/wrk/recipes/web/plugin/images/icon24.png"
       inkscape:export-xdpi="4.1363196"
       inkscape:export-ydpi="4.1363196" />
    <path
       style="fill:#000000;fill-rule:nonzero;stroke:none;stroke-width:3.47814;stroke-linecap:butt;stroke-linejoin:miter;stroke-miterlimit:4;stroke-dasharray:none;stroke-opacity:1"
       d="m 231.79777,242.32164 c 0.0536,5.22994 -0.13265,15.2381 0.50801,25.35698 0.0988,1.56103 0.21532,3.18992 0.34913,4.84765 0.5143,6.37158 1.20645,12.23529 2.02147,16.94529 0.63212,3.65298 1.2638,6.19006 1.82988,7.88484 0.26078,0.78077 0.51687,1.41134 0.77177,1.91598 0.25015,0.49523 0.52166,0.91477 0.84023,1.26202 a 3.6851566,3.0048076 29.436456 0 0 6.08952,-1.04711 c -0.0184,0.31378 0.2721,0.0457 0.95832,-0.50418 0.76123,-0.61002 1.85365,-1.4402 3.47261,-2.32392 0.20445,-0.1116 0.41522,-0.22289 0.63257,-0.33366 3.13491,-1.59766 8.65133,-3.66592 18.19361,-3.43836 5.30854,-0.0354 10.25927,1.04656 14.29562,2.23951 2.5122,0.74248 4.78145,1.56601 6.2755,2.09329 0.42492,0.14996 0.80722,0.28358 1.15822,0.4023 2.20506,0.74585 3.86445,0.85008 4.55941,1.0142 -0.34419,-0.62565 -0.94435,-2.2464 -2.72794,-3.97109 -0.28223,-0.2729 -0.60579,-0.56834 -0.97154,-0.88219 -1.34787,-1.15661 -3.34781,-2.62907 -5.96909,-4.09107 -4.02886,-2.24708 -9.63486,-4.52041 -16.15898,-5.20237 -10.94186,-0.90071 -18.29293,1.12958 -22.902,3.45745 -0.31632,0.15976 -0.62519,0.32372 -0.92652,0.49152 -2.36732,1.31828 -4.12369,2.79322 -5.31086,4.11244 -1.09657,1.21853 -1.59264,2.17972 -1.61137,2.49959 l 6.08952,-1.04711 c 0.32388,0.35304 0.41147,0.62386 0.35586,0.69305 -0.0584,0.0727 -0.26878,-0.0589 -0.56338,-0.44701 -0.67196,-0.88532 -1.61876,-2.826 -2.68496,-6.15967 -1.37528,-4.3 -2.61851,-9.83885 -3.77308,-16.08467 -0.29854,-1.61498 -0.57732,-3.20059 -0.83877,-4.72942 -1.68706,-9.86482 -3.31725,-19.79052 -3.96276,-24.95428 z"
       id="path194-62"
       sodipodi:nodetypes="ccsc"
       inkscape:path-effect="#path-effect11746"
       inkscape:original-d="m 231.79777,242.32164 c 3.41257,50.62788 8.89379,54.94738 8.89379,54.94738 0,0 6.13624,-9.72665 27.00393,-8.58056 11.05767,0.60731 20.86241,5.99918 26.05815,9.94801"
       inkscape:export-filename="/home/kskitek/wrk/recipes/web/plugin/images/icon24.png"
       inkscape:export-xdpi="4.1363196"
       inkscape:export-ydpi="4.1363196" />
    <rect
       style="fill:none;stroke:#ffffff;stroke-width:1.6071;stroke-miterlimit:4;stroke-dasharray:none;stroke-opacity:1"
       id="rect5023-3"
       width="145.77029"
       height="145.77029"
       x="33.123569"
       y="158.58522"
       ry="6.1860237"
       inkscape:export-filename="/home/kskitek/wrk/recipes/web/plugin/images/icon16.png"
       inkscape:export-xdpi="2.7575467"
       inkscape:export-ydpi="2.7575467" />
    <path
       style="fill:#000000;fill-rule:nonzero;stroke:none;stroke-width:3.44012;stroke-linecap:butt;stroke-linejoin:miter;stroke-miterlimit:4;stroke-dasharray:none;stroke-opacity:1"
       d="m 146.3755,202.37831 h 0 c 0,0.0517 0,0.19825 0,0.30341 l -0.034,-0.002 c -0.071,0.61685 -0.32747,0.99715 3.17992,2.73467 1.60739,0.79628 4.45481,2.13167 7.00004,3.82343 2.38489,1.58519 4.46365,3.43758 5.73472,5.58244 0.60306,1.01763 0.98868,2.04078 1.18697,3.09387 0.19913,1.0575 0.2242,2.2244 0.032,3.54295 -0.45715,3.8322 -1.50266,6.18655 -2.46882,7.72 -0.20765,0.32959 -0.41495,0.62497 -0.61653,0.89036 -0.83625,1.10093 -1.80374,1.93491 -2.88385,2.57827 -1.27153,0.75738 -2.80228,1.30932 -4.58516,1.62472 -1.77867,0.31466 -3.67891,0.37026 -5.57057,0.22474 -0.11634,0.004 -0.49256,-0.0274 -0.96574,-0.0742 -0.48784,-0.0482 -1.11123,-0.11601 -1.82469,-0.19453 -1.51105,-0.16631 -3.32523,-0.36926 -5.4586,-0.58188 -4.8281,-0.48117 -10.21993,-0.90118 -15.61056,-1.01599 -4.04004,-0.086 -7.70518,0.008 -10.92674,0.29281 -2.36819,0.20904 -4.60333,0.56554 -6.6617,1.03609 -3.10099,0.70891 -5.67287,1.64588 -7.747099,2.6589 -3.101286,1.51461 -4.727139,3.00963 -5.716327,3.88743 1.343548,-0.10053 3.385991,0.11509 6.451579,0.61575 2.043447,0.33373 4.496177,0.78524 7.320237,1.27172 1.87509,0.32301 3.95023,0.66666 6.10654,0.98038 3.14714,0.45788 6.15317,0.88529 10.11739,1.50284 5.19553,0.80936 9.96893,1.62819 14.73774,2.5018 2.06787,0.37882 3.75361,0.69767 5.27866,0.9853 0.69436,0.13096 1.35711,0.25571 1.88558,0.35245 0.50219,0.0919 1.02501,0.18513 1.42978,0.24321 3.08779,0.39872 6.47967,0.38229 9.88348,-0.2847 3.45981,-0.67796 6.88882,-2.02184 9.9318,-4.21605 2.62605,-1.89357 4.78186,-4.28992 6.40092,-7.09986 0.38148,-0.66207 0.74411,-1.36977 1.08108,-2.12499 1.58628,-3.55514 2.51197,-7.94892 2.38152,-13.34768 -0.0496,-2.77381 -0.60682,-5.34052 -1.61141,-7.65888 -0.9831,-2.26874 -2.3402,-4.17547 -3.88331,-5.75689 -3.10663,-3.18375 -6.95505,-5.04302 -10.19149,-6.12285 -3.72018,-1.24123 -7.0835,-1.61483 -9.14852,-1.64905 -4.16865,-0.0691 -4.14764,0.91908 -4.20076,1.38042 a 0.01705359,0.01707471 48.24889 0 0 -0.034,-0.002 c 0,0.10516 0,0.25174 0,0.30284 z"
       id="path188-5"
       sodipodi:nodetypes="cssc"
       inkscape:path-effect="#path-effect1529"
       inkscape:original-d="m 146.3755,202.37831 c 0,0 23.67746,2.67152 23.08455,19.29236 -0.61233,17.1745 -12.86401,21.15503 -22.90187,20.05563 -4.49556,-0.49237 -40.3864,-7.03264 -54.119476,-1.22241"
       inkscape:export-filename="/home/kskitek/wrk/recipes/web/plugin/images/icon16.png"
       inkscape:export-xdpi="2.7575467"
       inkscape:export-ydpi="2.7575467" />
    <path
       style="fill:#000000;fill-rule:nonzero;stroke:none;stroke-width:3.44012;stroke-linecap:butt;stroke-linejoin:miter;stroke-miterlimit:4;stroke-dasharray:none;stroke-opacity:1"
       d="m 74.112433,190.62341 c -0.0062,-0.26241 -0.707745,-0.99182 -4.321135,-1.12081 -2.525349,-0.0901 -6.169832,0.18925 -10.086908,1.36749 -2.04083,0.61388 -4.04613,1.43931 -5.950136,2.50122 -2.289408,1.27686 -4.207377,2.76956 -5.80422,4.36609 -0.214323,0.21428 -0.42031,0.42788 -0.618284,0.64015 -1.901314,2.03869 -3.341467,4.13492 -4.357927,6.00449 -1.204079,2.21465 -2.3933,5.14636 -2.870676,9.19653 -0.145536,1.19489 -0.253009,2.491 -0.29226,3.86516 -0.108263,3.79029 0.30058,8.16252 1.791145,12.40596 1.441874,4.10483 3.70147,7.52972 6.583198,10.13017 2.511704,2.26655 5.131012,3.57555 7.246672,4.25952 2.039528,0.65935 3.488605,0.70378 3.865618,0.54991 l -0.730575,-0.15967 c 0.220821,-0.44211 6.769035,0.73905 11.718701,1.16921 1.1415,0.0992 2.200926,0.16948 3.176509,0.20923 2.251402,0.0917 4.383212,-0.008 6.254981,-0.27083 1.658539,-0.233 3.025556,-0.58095 4.122713,-0.98875 1.613482,-0.5997 2.430434,-1.24464 2.900093,-1.65732 -0.626441,-0.0835 -1.518575,-0.3791 -2.943426,-0.92158 -0.967907,-0.36851 -2.162266,-0.84234 -3.570439,-1.38615 -1.574,-0.60785 -3.474257,-1.32602 -5.434611,-2.00376 -1.508966,-0.52168 -1.319189,-0.45433 -2.828155,-0.97601 -4.216716,-1.4641 -10.452385,-3.75261 -10.214978,-4.22794 l -0.730575,-0.15967 c 0.381735,-0.1558 -0.03291,-0.38599 -0.766009,-0.87059 -0.785132,-0.519 -1.745263,-1.20608 -2.7075,-2.28577 -1.061935,-1.19156 -2.044374,-2.77427 -2.782456,-4.96558 -0.801947,-2.38091 -1.172085,-5.04077 -1.305009,-7.89213 -0.04646,-0.99653 -0.06294,-1.97891 -0.06218,-2.90859 -0.01677,-2.40488 0.173212,-4.59637 0.382002,-5.90837 0.201195,-1.26427 0.557068,-2.73699 1.376316,-4.3083 0.08475,-0.16254 0.174623,-0.32836 0.270004,-0.4971 0.705552,-1.24822 1.671133,-2.58386 3.015837,-3.93485 1.129323,-1.1346 2.430992,-2.18471 3.895126,-3.15636 2.83683,-1.88264 5.78314,-3.13968 7.98993,-4.0406 3.144229,-1.28362 3.799019,-1.58525 3.78861,-2.0244 z"
       id="path190-3"
       inkscape:path-effect="#path-effect1533"
       inkscape:original-d="m 74.112433,190.62341 c 0,0 -25.794255,0.61138 -27.363555,23.41256 -1.569386,22.80121 13.408761,25.0667 13.408761,25.0667 0,0 20.384138,5.8667 26.582303,3.98849"
       sodipodi:nodetypes="cccc"
       inkscape:export-filename="/home/kskitek/wrk/recipes/web/plugin/images/icon16.png"
       inkscape:export-xdpi="2.7575467"
       inkscape:export-ydpi="2.7575467" />
    <path
       style="fill:#000000;fill-rule:nonzero;stroke:none;stroke-width:3.44012;stroke-linecap:butt;stroke-linejoin:miter;stroke-miterlimit:4;stroke-dasharray:none;stroke-opacity:1"
       d="m 142.84395,240.75068 c -0.32173,0.30436 -1.23127,0.62391 -1.93035,1.82617 -2.67163,4.59456 -8.63068,27.23691 -10.45244,39.78888 -0.77611,5.34743 -0.88676,10.24884 -0.866,15.16961 l 7.50966,-3.69828 c -0.43767,0.61156 -2.33433,0.56657 -5.46646,-0.39602 -3.12764,-0.9612 -6.16626,-2.01677 -9.2939,-2.97797 -4.18503,-1.28484 -8.72223,-2.52367 -13.42374,-3.42532 -6.61792,-1.26918 -11.425031,-1.44926 -14.610722,-1.3312 3.15965,0.32397 7.886342,1.06552 14.150522,3.11644 4.42705,1.44943 8.7121,3.25906 12.48929,5.14231 3.64872,1.8192 6.40784,3.49761 8.13661,4.71924 2.56256,1.81084 3.46877,3.38318 3.03754,3.98574 l 7.50966,-3.69828 c 1.40014,-4.71742 2.6687,-9.45312 3.42362,-14.80357 1.77202,-12.5591 2.40303,-35.96397 1.12736,-41.12345 -0.3338,-1.35008 -1.11721,-1.91192 -1.34065,-2.2943 z"
       id="path192-5"
       sodipodi:nodetypes="ccc"
       inkscape:path-effect="#path-effect1537"
       inkscape:original-d="m 142.84395,240.75068 -8.22956,57.50299 c 0,0 -21.14455,-11.92293 -40.304392,-12.54712"
       inkscape:export-filename="/home/kskitek/wrk/recipes/web/plugin/images/icon16.png"
       inkscape:export-xdpi="2.7575467"
       inkscape:export-ydpi="2.7575467" />
    <path
       style="fill:#000000;fill-rule:nonzero;stroke:none;stroke-width:3.44012;stroke-linecap:butt;stroke-linejoin:miter;stroke-miterlimit:4;stroke-dasharray:none;stroke-opacity:1"
       d="m 64.625504,242.66701 c -0.387327,6.04649 -2.324164,18.11995 -2.046564,29.26254 0.0082,0.32747 0.01784,0.65776 0.02901,0.99039 0.203216,6.04949 0.867067,12.27474 1.787938,17.12792 0.700036,3.68933 1.500699,6.3829 2.340925,8.25965 0.384328,0.85844 0.791147,1.58017 1.231645,2.18646 0.426703,0.5873 0.918914,1.11272 1.496189,1.54163 a 6.4695179,7.7689882 49.090469 0 0 8.108833,-0.15911 c -0.243848,0.15347 1.237554,-1.5673 5.630847,-3.61896 1.816177,-0.84815 3.90447,-1.63263 6.246122,-2.28194 3.682162,-1.02102 8.485568,-1.93027 14.49045,-2.08379 4.88042,-0.12501 8.78349,0.04 11.97528,0.35911 3.39988,0.33992 6.01244,0.85766 8.06787,1.38368 2.49134,0.63757 4.4641,1.37193 5.84842,1.8921 0.39099,0.14692 0.71497,0.26971 1.04692,0.39321 2.13864,0.79572 3.40973,0.91088 4.28904,1.11854 -0.25077,-0.45583 -0.98253,-2.32456 -2.25835,-3.89536 -0.22877,-0.28168 -0.49341,-0.5904 -0.79439,-0.91778 -1.11065,-1.20807 -2.89461,-2.87079 -5.61128,-4.47151 -2.23467,-1.31672 -5.15327,-2.62679 -9.02848,-3.67752 -3.61519,-0.98023 -7.98444,-1.71421 -13.32333,-2.05856 -6.875827,-0.4304 -12.652474,0.12833 -17.286162,1.08242 -2.933471,0.60401 -5.636314,1.37979 -8.101448,2.27873 -5.783095,2.10888 -8.837099,4.35871 -9.494301,4.77233 l 8.108833,-0.15911 c 0.57537,0.4275 0.898742,0.81876 1.017111,0.97888 0.130305,0.17626 0.07343,0.14323 -0.08891,-0.15071 -0.414056,-0.74969 -1.14553,-2.42831 -2.124559,-5.63136 -1.384193,-4.52859 -2.487821,-9.39302 -3.94328,-15.54103 0.0079,0.0336 -0.229577,-0.96615 -0.221628,-0.93257 -2.506457,-10.49987 -6.197486,-22.10847 -7.392751,-28.04828 z"
       id="path194-6"
       sodipodi:nodetypes="ccsc"
       inkscape:path-effect="#path-effect1541"
       inkscape:original-d="m 64.625504,242.66701 c 3.375283,50.07454 8.796581,54.34683 8.796581,54.34683 0,0 9.958655,-8.50202 30.624625,-8.05909 20.17006,0.43258 25.98276,6.17803 31.12172,10.08369"
       inkscape:export-filename="/home/kskitek/wrk/recipes/web/plugin/images/icon16.png"
       inkscape:export-xdpi="2.7575467"
       inkscape:export-ydpi="2.7575467" />
  </g>
</svg>
