<?xml version="1.0" encoding="UTF-8" standalone="no"?>
<!-- Created with Inkscape (http://www.inkscape.org/) -->

<svg
   width="210mm"
   height="297mm"
   viewBox="0 0 210 297"
   version="1.1"
   id="svg5"
   inkscape:version="1.1 (c4e8f9ed74, 2021-05-24)"
   sodipodi:docname="icon.svg"
   xmlns:inkscape="http://www.inkscape.org/namespaces/inkscape"
   xmlns:sodipodi="http://sodipodi.sourceforge.net/DTD/sodipodi-0.dtd"
   xmlns="http://www.w3.org/2000/svg"
   xmlns:svg="http://www.w3.org/2000/svg">
  <sodipodi:namedview
     id="namedview7"
     pagecolor="#505050"
     bordercolor="#ffffff"
     borderopacity="1"
     inkscape:pageshadow="0"
     inkscape:pageopacity="0"
     inkscape:pagecheckerboard="1"
     inkscape:document-units="mm"
     showgrid="false"
     inkscape:zoom="2.1997092"
     inkscape:cx="605.53459"
     inkscape:cy="373.68576"
     inkscape:window-width="3824"
     inkscape:window-height="2144"
     inkscape:window-x="8"
     inkscape:window-y="8"
     inkscape:window-maximized="1"
     inkscape:current-layer="layer1" />
  <defs
     id="defs2">
    <inkscape:path-effect
       effect="powerstroke"
       id="path-effect6479"
       is_visible="true"
       lpeversion="1"
       offset_points="0.035828329,0.19210535 | 0.98015852,0.15158414 | 1.9719282,0.081401191"
       not_jump="false"
       sort_points="true"
       interpolator_type="CentripetalCatmullRom"
       interpolator_beta="0.2"
       start_linecap_type="zerowidth"
       linejoin_type="round"
       miter_limit="4"
       scale_width="1"
       end_linecap_type="zerowidth" />
    <inkscape:path-effect
       effect="powerstroke"
       id="path-effect6401"
       is_visible="true"
       lpeversion="1"
       offset_points="0.2,0.2 | 1.5,0.2 | 2.8,0.2"
       not_jump="false"
       sort_points="true"
       interpolator_type="CentripetalCatmullRom"
       interpolator_beta="0.2"
       start_linecap_type="zerowidth"
       linejoin_type="round"
       miter_limit="4"
       scale_width="1"
       end_linecap_type="zerowidth" />
    <inkscape:path-effect
       effect="powerstroke"
       id="path-effect6361"
       is_visible="true"
       lpeversion="1"
       offset_points="0.2437361,0.14759454 | 1,0.2 | 1.7027485,0.20512188"
       not_jump="false"
       sort_points="true"
       interpolator_type="CentripetalCatmullRom"
       interpolator_beta="0.2"
       start_linecap_type="zerowidth"
       linejoin_type="round"
       miter_limit="4"
       scale_width="1"
       end_linecap_type="zerowidth" />
    <inkscape:path-effect
       effect="powerstroke"
       id="path-effect6245"
       is_visible="true"
       lpeversion="1"
       offset_points="0.6807841,0.12764283 | 1.1250776,0.25581271 | 2.8954636,0.080699723"
       not_jump="false"
       sort_points="true"
       interpolator_type="CentripetalCatmullRom"
       interpolator_beta="0.2"
       start_linecap_type="zerowidth"
       linejoin_type="round"
       miter_limit="4"
       scale_width="1"
       end_linecap_type="zerowidth" />
    <inkscape:path-effect
       effect="powerstroke"
       id="path-effect6129"
       is_visible="true"
       lpeversion="1"
       offset_points="0,0.035279524 | 1.2031836,0.25860227 | 2.7779209,0.15086831"
       not_jump="false"
       sort_points="true"
       interpolator_type="CentripetalCatmullRom"
       interpolator_beta="0.2"
       start_linecap_type="zerowidth"
       linejoin_type="round"
       miter_limit="4"
       scale_width="1"
       end_linecap_type="zerowidth" />
  </defs>
  <g
     inkscape:label="Layer 1"
     inkscape:groupmode="layer"
     id="layer1">
    <rect
       style="fill:#ffffff;stroke:#ffffff;stroke-width:1.6071;stroke-miterlimit:4;stroke-dasharray:none"
       id="rect5023"
       width="145.77029"
       height="145.77029"
       x="32.473488"
       y="31.785059"
       ry="6.1860237" />
    <g
       id="g5110"
       transform="matrix(8.1876327,0,0,8.1876327,-833.17369,-693.7066)">
      <path
         style="fill:#000000;fill-rule:nonzero;stroke:none;stroke-width:0.4;stroke-linecap:butt;stroke-linejoin:miter;stroke-miterlimit:4;stroke-dasharray:none;stroke-opacity:1"
         d="m 110.2313,94.264931 c 0.0463,-0.0011 0.077,-0.111075 0.20239,-0.721536 -2.2e-4,0.0011 0.007,-0.03467 0.007,-0.03361 0.0694,-0.334766 0.2091,-0.986868 0.53782,-1.644683 0.14418,-0.288535 0.32785,-0.58577 0.56408,-0.867184 0.22982,-0.273781 0.50732,-0.530135 0.84369,-0.749515 0.34021,-0.221885 0.73514,-0.40236 1.19323,-0.526749 0.48344,-0.131273 1.02317,-0.196249 1.62052,-0.189548 0.60578,0.0068 1.12063,0.09641 1.55444,0.252232 0.42209,0.151609 0.76039,0.363301 1.03168,0.613487 0.27289,0.251663 0.47786,0.542161 0.63229,0.848944 0.1606,0.319015 0.26611,0.65482 0.33596,0.979992 0.12679,0.590225 0.13972,1.167557 0.14076,1.559905 2.9e-4,0.108861 -7e-5,0.211129 -6.5e-4,0.31005 -0.004,0.7297 9.8e-4,0.88138 0.0544,0.89412 0.0152,0.0036 0.1888,-0.109373 0.31412,-0.861867 0.0169,-0.101368 0.0313,-0.209614 0.042,-0.323063 0.039,-0.414063 0.0447,-1.026068 -0.0934,-1.676748 -0.0757,-0.356463 -0.19628,-0.731859 -0.38418,-1.092154 -0.18123,-0.347488 -0.42406,-0.678959 -0.7468,-0.965161 -0.32126,-0.284888 -0.71368,-0.517833 -1.18839,-0.680416 -0.48641,-0.166587 -1.0474,-0.255329 -1.68865,-0.259307 -0.6286,-0.0039 -1.20476,0.06599 -1.7277,0.209122 -0.49609,0.135782 -0.92869,0.333244 -1.30399,0.578995 -0.37094,0.242893 -0.67632,0.526689 -0.92723,0.828983 -0.25759,0.310339 -0.45456,0.636298 -0.60523,0.949755 -0.34719,0.722276 -0.46173,1.403329 -0.49478,1.76724 -0.001,0.01215 -0.002,0.0241 -0.003,0.03583 -0.0531,0.65229 0.081,0.763095 0.0899,0.762886 z"
         id="path186"
         inkscape:path-effect="#path-effect6361"
         inkscape:original-d="m 110.2313,94.264931 c 0,0 -0.11666,-4.976786 4.97039,-4.932823 5.08704,0.04396 3.74711,5.658723 3.74711,5.658723" />
      <path
         style="fill:#000000;fill-rule:nonzero;stroke:none;stroke-width:0.4;stroke-linecap:butt;stroke-linejoin:miter;stroke-miterlimit:4;stroke-dasharray:none;stroke-opacity:1"
         d="m 119.15743,93.264298 c -7e-4,0.0062 -0.003,0.02342 -0.004,0.03506 -0.008,0.0652 -0.033,0.063 0.39803,0.195411 0.2052,0.06303 0.54955,0.1726 0.88978,0.345425 0.31029,0.15762 0.61712,0.367169 0.83615,0.645021 0.10706,0.135799 0.19094,0.285104 0.246,0.450086 0.0565,0.169404 0.083,0.355953 0.0727,0.563458 -0.0196,0.408276 -0.0974,0.716498 -0.19275,0.949394 -0.0236,0.05756 -0.0493,0.113245 -0.0771,0.166998 -0.13682,0.263919 -0.32281,0.474956 -0.55661,0.633606 -0.21538,0.146151 -0.46677,0.244557 -0.74228,0.298387 -0.26979,0.05271 -0.55091,0.06028 -0.82048,0.03486 -0.0273,-0.0019 -0.0711,-0.0067 -0.12784,-0.0138 -0.0572,-0.0071 -0.1269,-0.01637 -0.2066,-0.02712 -0.16777,-0.02264 -0.36522,-0.04984 -0.59918,-0.07983 -0.52132,-0.06683 -1.1003,-0.131257 -1.69388,-0.171104 -0.77841,-0.05225 -1.40754,-0.05012 -1.90433,-0.0079 -0.0716,0.0061 -0.13885,0.01286 -0.20198,0.02019 -0.25763,0.0299 -0.47438,0.07416 -0.65558,0.124738 -0.36352,0.101461 -0.56936,0.224477 -0.67994,0.289287 0.12495,-0.03463 0.35257,-0.07133 0.71326,-0.09277 0.18082,-0.01075 0.39099,-0.01761 0.64149,-0.02013 0.0613,-6.16e-4 0.12647,-8.63e-4 0.1959,-5.62e-4 0.48734,0.0021 1.08695,0.03119 1.85422,0.113161 0.58185,0.06216 1.14756,0.142739 1.66189,0.224793 0.22903,0.03654 0.42647,0.06991 0.59228,0.09807 0.0787,0.01336 0.15046,0.02558 0.20885,0.03527 0.057,0.0095 0.10802,0.01765 0.14504,0.02268 0.31194,0.03825 0.64676,0.03651 0.97644,-0.02437 0.33774,-0.06237 0.6614,-0.185262 0.94567,-0.380747 0.31132,-0.214082 0.55248,-0.499353 0.72036,-0.842326 0.0339,-0.06919 0.0644,-0.140044 0.0918,-0.212309 0.11158,-0.294135 0.19096,-0.661166 0.20225,-1.120931 0.007,-0.266449 -0.0345,-0.51309 -0.11839,-0.739039 -0.0815,-0.219627 -0.20046,-0.411853 -0.34355,-0.579034 -0.28844,-0.336998 -0.6682,-0.564466 -1.01566,-0.716009 -0.38998,-0.170086 -0.76072,-0.254303 -0.9879,-0.290886 -0.46976,-0.07565 -0.45606,0.0024 -0.46015,0.03795 -0.001,0.01125 -0.003,0.02921 -0.004,0.03506 z"
         id="path188"
         sodipodi:nodetypes="cssc"
         inkscape:path-effect="#path-effect6129"
         inkscape:original-d="m 119.15743,93.264298 c 0,0 2.75309,0.310631 2.68415,2.243214 -0.0712,1.996961 -1.49576,2.459797 -2.66291,2.331964 -0.52272,-0.05725 -4.44432,-0.798617 -6.04113,-0.123033" />
      <path
         style="fill:#000000;fill-rule:nonzero;stroke:none;stroke-width:0.4;stroke-linecap:butt;stroke-linejoin:miter;stroke-miterlimit:4;stroke-dasharray:none;stroke-opacity:1"
         d="m 110.75506,91.8975 c -2.1e-4,-0.0091 -0.10529,-0.03466 -0.47877,0.0095 -0.28352,0.0335 -0.6754,0.110832 -1.08047,0.276009 -0.2152,0.08776 -0.41724,0.193398 -0.60296,0.317238 -0.0932,0.06218 -0.17925,0.126848 -0.25863,0.193248 -0.11135,0.09313 -0.21146,0.190191 -0.30115,0.289988 -0.182,0.20252 -0.33466,0.431345 -0.45095,0.688014 -0.11123,0.245502 -0.20523,0.551609 -0.24278,0.932215 -0.0303,0.305286 -0.031,0.630212 0.0186,0.962023 0.0381,0.254883 0.10732,0.524586 0.22198,0.79575 0.18134,0.428905 0.45082,0.800805 0.78832,1.107731 0.28451,0.258743 0.58047,0.437484 0.82284,0.552445 0.22508,0.106765 0.38347,0.148494 0.39594,0.144 a 0.00568035,0.01279055 80.432708 0 0 0.0177,0.0045 c 0.009,-0.01453 0.3467,0.0317 0.69698,0.04089 0.2315,0.0061 0.44264,-0.0017 0.6286,-0.02439 0.16587,-0.02024 0.28807,-0.04964 0.36643,-0.07672 0.13244,-0.04575 0.195,-0.11194 0.2253,-0.133734 -0.0416,-0.0015 -0.11749,-0.0226 -0.25123,-0.02557 -0.0808,-0.0018 -0.18995,-5.54e-4 -0.3495,-0.0092 -0.17526,-0.0095 -0.3724,-0.02913 -0.58945,-0.06367 -0.32766,-0.05213 -0.64191,-0.135729 -0.63249,-0.150259 a 0.00568038,0.01279057 80.432609 0 0 0.0177,0.0045 c 0.0122,-0.0044 -0.11734,-0.05032 -0.30494,-0.150682 -0.20487,-0.109602 -0.45285,-0.268991 -0.69174,-0.493536 -0.28138,-0.264491 -0.50364,-0.575497 -0.65782,-0.932452 -0.0979,-0.226544 -0.16045,-0.453278 -0.19961,-0.672061 -0.0509,-0.284361 -0.0653,-0.570417 -0.0555,-0.847453 0.0116,-0.3322 0.0656,-0.604449 0.13542,-0.824101 0.0735,-0.231173 0.17806,-0.446328 0.31908,-0.643337 0.0695,-0.09705 0.15011,-0.192926 0.24389,-0.285942 0.0668,-0.06626 0.14055,-0.131851 0.22189,-0.196011 0.16218,-0.127925 0.34359,-0.241513 0.54179,-0.340597 0.37418,-0.187062 0.74672,-0.291736 1.02141,-0.352815 0.36026,-0.08011 0.4644,-0.08653 0.46419,-0.0956 z"
         id="path190"
         inkscape:path-effect="#path-effect6245"
         inkscape:original-d="m 110.75506,91.8975 c 0,0 -2.99922,0.07109 -3.18169,2.72229 -0.18248,2.651205 2.0786,3.329067 2.0786,3.329067 0,0 1.1493,0.245748 1.86999,0.02736" />
      <path
         style="fill:#000000;fill-rule:nonzero;stroke:none;stroke-width:0.4;stroke-linecap:butt;stroke-linejoin:miter;stroke-miterlimit:4;stroke-dasharray:none;stroke-opacity:1"
         d="m 118.7468,97.726036 c -0.0374,0.03539 -0.15168,0.07036 -0.22445,0.212337 -0.32988,0.643581 -0.57654,4.186687 -0.86351,6.319667 -0.002,0.0186 -0.005,0.0372 -0.008,0.056 -0.22969,0.10933 -0.99596,0.44071 -2.03813,0.67903 -0.68731,0.15718 -1.36921,0.24176 -2.02572,0.23807 -0.98927,-0.006 -1.5888,-0.20494 -1.91699,-0.27573 -0.1482,-0.032 -0.22253,-0.0185 -0.26752,-0.0239 0.0299,0.0267 0.0768,0.1 0.20874,0.17575 0.27571,0.15825 0.96539,0.41016 1.97116,0.43398 0.68429,0.0162 1.39716,-0.0727 2.10217,-0.23805 1.29811,-0.30444 2.16369,-0.75901 2.17225,-0.75631 a 0.05699927,0.11898578 10.196467 0 0 0.0817,-0.11337 c 0.007,-0.0448 0.0134,-0.089 0.02,-0.13252 0.32282,-2.12784 1.07986,-5.597912 0.94373,-6.308185 -0.03,-0.156686 -0.1299,-0.222307 -0.15588,-0.266769 z"
         id="path192"
         sodipodi:nodetypes="ccc"
         inkscape:path-effect="#path-effect6479"
         inkscape:original-d="m 118.7468,97.726036 -0.95689,6.686144 c 0,0 -3.57991,1.78947 -6.38699,0.51933" />
      <path
         style="fill:#000000;fill-rule:nonzero;stroke:none;stroke-width:0.4;stroke-linecap:butt;stroke-linejoin:miter;stroke-miterlimit:4;stroke-dasharray:none;stroke-opacity:1"
         d="m 109.65197,97.948857 c 0.006,0.599988 -0.0274,1.760665 0.0584,2.916153 0.0133,0.17945 0.0297,0.36657 0.049,0.55633 0.074,0.72863 0.18033,1.40483 0.30534,1.93012 0.0984,0.41362 0.19629,0.68433 0.28237,0.85375 0.0393,0.0774 0.0751,0.13161 0.10641,0.16963 0.0306,0.0371 0.0574,0.0595 0.0797,0.0728 a 0.13392736,0.02493293 29.665959 0 0 0.14157,0.0491 c 0,-0.014 0.34295,-0.29768 0.87934,-0.51657 l 0.0756,-0.0148 c 0.50977,-0.20803 1.37636,-0.44606 2.60107,-0.40573 0.58623,0.0194 1.05218,0.0776 1.42943,0.15438 0.40655,0.0827 0.70902,0.18695 0.94057,0.28424 0.27381,0.11505 0.50476,0.24722 0.64082,0.3183 0.0413,0.0216 0.079,0.0405 0.11404,0.0568 0.23334,0.10838 0.40505,0.10794 0.49871,0.13006 -0.0322,-0.0585 -0.0955,-0.27573 -0.26259,-0.45293 -0.0282,-0.03 -0.0616,-0.062 -0.10005,-0.0956 -0.13898,-0.12124 -0.36439,-0.27895 -0.69165,-0.42164 -0.26464,-0.11537 -0.6038,-0.2248 -1.04731,-0.30424 -0.40987,-0.0734 -0.90436,-0.12054 -1.51217,-0.12674 -1.29508,-0.0136 -2.21054,0.26768 -2.762,0.49272 l 0.0756,-0.0148 c -0.53639,0.21889 -0.87934,0.47313 -0.87934,0.45913 l 0.14157,0.0491 c 0.0224,0.0133 0.029,0.0196 0.024,0.007 -0.005,-0.0125 -0.0223,-0.0442 -0.0471,-0.10212 -0.0574,-0.13379 -0.13859,-0.36422 -0.23685,-0.76143 -0.12771,-0.51624 -0.24149,-1.13602 -0.36106,-1.86845 -0.0306,-0.18762 -0.0592,-0.36723 -0.0876,-0.54507 -0.18257,-1.143212 -0.37983,-2.262667 -0.45573,-2.869843 z"
         id="path194"
         sodipodi:nodetypes="ccsc"
         inkscape:path-effect="#path-effect6401"
         inkscape:original-d="m 109.65197,97.948857 c 0.39246,5.822403 1.02282,6.319163 1.02282,6.319163 0,0 1.15794,-0.98857 3.56087,-0.93707 2.34527,0.0503 3.02114,0.71835 3.61867,1.17248" />
    </g>
  </g>
</svg>
